<?xml version="1.0" encoding="UTF-8" standalone="no"?>
<svg width="52px" height="59px" viewBox="0 0 52 59" version="1.1" xmlns="http://www.w3.org/2000/svg" xmlns:xlink="http://www.w3.org/1999/xlink" xmlns:sketch="http://www.bohemiancoding.com/sketch/ns">
    <!-- Generator: Sketch 3.4.4 (17249) - http://www.bohemiancoding.com/sketch -->
    <title>Group</title>
    <desc>Created with Sketch.</desc>
    <defs></defs>
    <g id="Welcome" stroke="none" stroke-width="1" fill="none" fill-rule="evenodd" sketch:type="MSPage">
        <g id="Desktop-HD" sketch:type="MSArtboardGroup" transform="translate(-771.000000, -938.000000)">
            <g id="Group" sketch:type="MSLayerGroup" transform="translate(773.000000, 940.000000)">
                <ellipse id="Oval-13" stroke="#D7D7D7" stroke-width="4" sketch:type="MSShapeGroup" cx="24" cy="24" rx="24" ry="24"></ellipse>
                <path d="M11.3164062,26.9667969 L36.6347656,26.9667969 C36.6347656,26.9667969 36.6347656,38.8457031 23.9755859,38.8457031 C11.3164062,38.8457031 11.3164062,26.9667969 11.3164062,26.9667969 Z" id="Path-7" stroke="#D7D7D7" stroke-width="2" sketch:type="MSShapeGroup"></path>
                <ellipse id="Oval-14" stroke="#D7D7D7" stroke-width="2" sketch:type="MSShapeGroup" cx="15.5" cy="16.5" rx="5.5" ry="5.5"></ellipse>
                <ellipse id="Oval-14" stroke="#D7D7D7" stroke-width="2" sketch:type="MSShapeGroup" cx="32.5" cy="16.5" rx="5.5" ry="5.5"></ellipse>
                <g id="Rectangle-50-+-Triangle-1-+-Triangle-1" transform="translate(14.000000, 40.000000)" fill="#28C1D1" sketch:type="MSShapeGroup">
                    <rect id="Rectangle-50" x="6" y="5" width="10" height="7" rx="1"></rect>
                    <polygon id="Triangle-1" transform="translate(13.405273, 8.578125) rotate(-89.000000) translate(-13.405273, -8.578125) " points="13.4052734 2.578125 21.4052734 14.578125 5.40527344 14.578125 "></polygon>
                    <polygon id="Triangle-1" transform="translate(6.405273, 8.578125) scale(-1, 1) rotate(-89.000000) translate(-6.405273, -8.578125) " points="6.40527344 2.578125 14.4052734 14.578125 -1.59472656 14.578125 "></polygon>
                </g>
            </g>
        </g>
    </g>
</svg>