<?xml version="1.0" encoding="UTF-8" standalone="no"?>
<svg width="62px" height="62px" viewBox="0 0 62 62" version="1.1" xmlns="http://www.w3.org/2000/svg" xmlns:xlink="http://www.w3.org/1999/xlink" xmlns:sketch="http://www.bohemiancoding.com/sketch/ns">
    <!-- Generator: Sketch 3.4.4 (17249) - http://www.bohemiancoding.com/sketch -->
    <title>Group + Oval 64 Copy</title>
    <desc>Created with Sketch.</desc>
    <defs>
        <filter x="-50%" y="-50%" width="200%" height="200%" filterUnits="objectBoundingBox" id="filter-1">
            <feGaussianBlur stdDeviation="4.76390165" in="SourceGraphic" result="blur"></feGaussianBlur>
        </filter>
    </defs>
    <g id="Welcome" stroke="none" stroke-width="1" fill="none" fill-rule="evenodd" sketch:type="MSPage">
        <g id="Desktop-HD" sketch:type="MSArtboardGroup" transform="translate(-736.000000, -1595.000000)">
            <g id="Group-+-Oval-64-Copy" sketch:type="MSLayerGroup" transform="translate(738.000000, 1597.000000)">
                <g id="Group" transform="translate(13.050000, 13.050000)" sketch:type="MSShapeGroup">
                    <path d="M0,10.6333333 L16.4333333,0 L31.9,10.6333333 L27.0666667,13.5333333 L1.93333333,13.5333333 L0,10.6333333 Z" id="Path-4" fill="#F0F0F0"></path>
                    <rect id="Rectangle-66" fill="#FFFFFF" x="1.93333333" y="5.8" width="28.0333333" height="18.3666667"></rect>
                    <rect id="Rectangle-67" opacity="0.341534515" fill-opacity="0.357195426" fill="#000000" filter="url(#filter-1)" x="0.966666667" y="13.5333333" width="29.9666667" height="7.73333333"></rect>
                    <path d="M5.8,9.66666667 L26.1,9.66666667" id="Path-5" stroke="#979797" opacity="0.52629431"></path>
                    <path d="M5.8,12.5666667 L26.1,12.5666667" id="Path-5-Copy" stroke="#979797" opacity="0.52629431"></path>
                    <path d="M5.8,15.4666667 L26.1,15.4666667" id="Path-5-Copy-2" stroke="#979797" opacity="0.52629431"></path>
                    <path d="M0.615151515,10.6333333 L0,10.6333333 L0,29 L31.9,29 L31.9,10.6333333 L31.3727273,10.6333333 L16.4333333,20.3 L0.615151515,10.6333333 Z" id="Rectangle-65" fill="#FFFFFF"></path>
                </g>
                <circle id="Oval-64-Copy" stroke="#FFFFFF" stroke-width="3" sketch:type="MSShapeGroup" cx="29" cy="29" r="29"></circle>
            </g>
        </g>
    </g>
</svg>