<?xml version="1.0" encoding="UTF-8" standalone="no"?>
<svg width="56px" height="79px" viewBox="0 0 56 79" version="1.1" xmlns="http://www.w3.org/2000/svg" xmlns:xlink="http://www.w3.org/1999/xlink" xmlns:sketch="http://www.bohemiancoding.com/sketch/ns">
    <!-- Generator: Sketch 3.4.4 (17249) - http://www.bohemiancoding.com/sketch -->
    <title>Oval 192 Copy + Path 733 + Path 734 + Path 734 Copy Copy + Twitter</title>
    <desc>Created with Sketch.</desc>
    <defs></defs>
    <g id="Welcome" stroke="none" stroke-width="1" fill="none" fill-rule="evenodd" sketch:type="MSPage">
        <g id="Desktop-HD" sketch:type="MSArtboardGroup" transform="translate(-638.000000, -431.000000)">
            <g id="Oval-192-Copy-+-Path-733-+-Path-734-+-Path-734-Copy-Copy-+-Twitter" sketch:type="MSLayerGroup" transform="translate(639.000000, 432.000000)">
                <g id="Oval-192-Copy-+-Path-733-+-Path-734-+-Path-734-Copy-Copy" sketch:type="MSShapeGroup">
                    <ellipse id="Oval-192-Copy" stroke="#FFFFFF" stroke-width="3" fill="#12C5FF" cx="27" cy="27" rx="26.3675032" ry="26.3675032"></ellipse>
                    <path d="M26.9253807,21.9911488 C26.9253807,21.9911488 24.0069133,22.174435 22.2140618,21.5555866 C18.5032299,20.2746984 13.9239512,15.7707978 13.9239512,15.7707978 C13.9239512,15.7707978 12.327673,18.5858448 13.9239512,21.9911488 C14.5593824,23.3466997 14.9004426,23.1501873 15.3145287,23.7015188 C15.4457678,23.8762561 13.1773212,23.7015188 13.1773212,23.7015188 C13.1773212,23.7015188 13.2552315,26.3413508 14.9303079,27.6460741 C16.0564609,28.5232389 16.6698718,28.9853113 17.4742189,29.5628164 C17.7945342,29.7927964 15.3145287,29.5628164 15.3145287,29.5628164 C15.3145287,29.5628164 15.9826365,31.973172 17.872869,32.8275192 C19.7631016,33.6818665 20.8410363,33.6461881 20.7855651,33.8060234 C20.6337705,34.2434068 18.38796,35.6187408 17.4742189,36.0066536 C16.5604778,36.3945663 12.327673,36.5948971 12.327673,36.5948971 C12.327673,36.5948971 15.1253282,38.6009734 17.4742189,38.9874676 C20.5548381,39.4943628 23.7639151,39.4561317 25.6986418,38.9874676 C27.6333685,38.5188034 30.8039931,37.7227471 34.4191971,33.8060234 C39.2150784,28.6101501 38.8714608,22.8253611 38.8714608,20.8683513 C39.6758078,20.0126627 41.6945618,18.0858543 41.6945618,18.0858543 L38.8714608,18.5858448 L40.7925652,15.7707978 L37.7077254,16.8969508 C37.7077254,16.8969508 36.7465297,15.8644425 35.3809241,15.274163 C34.3933278,14.8472771 33.0122059,14.8087357 32.5,14.8087357 C29.3361959,14.8087357 26.9253807,16.8767496 26.9253807,19.6381734 C26.9253807,19.8880164 26.9253807,21.9911488 26.9253807,21.9911488 Z" id="Oval-32" fill="#FFFFFF"></path>
                </g>
                <text id="Twitter" sketch:type="MSTextLayer" font-family="Helvetica Neue" font-size="14" font-weight="normal" fill="#FFFFFF">
                    <tspan x="6" y="77">Twitter</tspan>
                </text>
            </g>
        </g>
    </g>
</svg>