<?xml version="1.0" encoding="UTF-8" standalone="no"?>
<svg width="62px" height="62px" viewBox="0 0 62 62" version="1.1" xmlns="http://www.w3.org/2000/svg" xmlns:xlink="http://www.w3.org/1999/xlink" xmlns:sketch="http://www.bohemiancoding.com/sketch/ns">
    <!-- Generator: Sketch 3.4.4 (17249) - http://www.bohemiancoding.com/sketch -->
    <title>bird1 + Oval 1</title>
    <desc>Created with Sketch.</desc>
    <defs></defs>
    <g id="Welcome" stroke="none" stroke-width="1" fill="none" fill-rule="evenodd" sketch:type="MSPage">
        <g id="Desktop-HD" sketch:type="MSArtboardGroup" transform="translate(-633.000000, -1595.000000)">
            <g id="Screen-Shot-2015-10-22-at-11.27.14-AM-Copy" sketch:type="MSLayerGroup" transform="translate(-3.000000, 1373.000000)">
                <g id="bird1-+-Oval-1" transform="translate(638.000000, 224.000000)" sketch:type="MSShapeGroup">
                    <ellipse id="Oval-1" stroke="#FFFFFF" stroke-width="3" cx="29" cy="29" rx="29" ry="29"></ellipse>
                    <path d="M28.5977077,24.1824131 C28.5977077,24.1824131 25.6792403,24.3656994 23.8863888,23.746851 C20.1755569,22.4659628 15.5962782,17.9620622 15.5962782,17.9620622 C15.5962782,17.9620622 14,20.7771091 15.5962782,24.1824131 C16.2317094,25.5379641 16.5727696,25.3414516 16.9868557,25.8927832 C17.1180949,26.0675204 14.8496482,25.8927832 14.8496482,25.8927832 C14.8496482,25.8927832 14.9275586,28.5326151 16.6026349,29.8373384 C17.7287879,30.7145033 18.3421988,31.1765757 19.1465459,31.7540808 C19.4668612,31.9840608 16.9868557,31.7540808 16.9868557,31.7540808 C16.9868557,31.7540808 17.6549635,34.1644363 19.5451961,35.0187836 C21.4354286,35.8731308 22.5133633,35.8374524 22.4578922,35.9972878 C22.3060975,36.4346712 20.060287,37.8100052 19.1465459,38.1979179 C18.2328048,38.5858307 14,38.7861614 14,38.7861614 C14,38.7861614 16.7976552,40.7922377 19.1465459,41.1787319 C22.2271652,41.6856271 25.4362421,41.6473961 27.3709688,41.1787319 C29.3056955,40.7100677 32.4763201,39.9140115 36.0915241,35.9972878 C40.8874054,30.8014145 40.5437878,25.0166254 40.5437878,23.0596156 C41.3481348,22.203927 43.3668888,20.2771187 43.3668888,20.2771187 L40.5437878,20.7771091 L42.4648922,17.9620622 L39.3800524,19.0882151 C39.3800524,19.0882151 38.4188568,18.0557068 37.0532511,17.4654273 C36.0656548,17.0385414 34.6845329,17 34.172327,17 C31.008523,17 28.5977077,19.068014 28.5977077,21.8294377 C28.5977077,22.0792807 28.5977077,24.1824131 28.5977077,24.1824131 Z" id="Oval-32-Copy" fill="#FFFFFF"></path>
                </g>
            </g>
        </g>
    </g>
</svg>